<svg width="274" height="301" viewBox="0 0 274 301" fill="none" xmlns="http://www.w3.org/2000/svg">
<path d="M132.21 0.258599C116.972 1.97524 103.002 10.6055 95.2073 23.1393L94.1507 24.8559L91.3567 24.997C82.9982 25.4438 74.4284 28.1481 67.4786 32.4515C61.3036 36.308 55.2695 42.328 51.5363 48.348L50.6441 49.7825L47.6858 49.9236C31.6262 50.7231 16.4587 59.6826 7.93583 73.4392C5.44706 77.4369 3.09916 82.9395 1.90173 87.5956C-1.08011 99.0712 0.281677 111.652 5.63489 122.375L6.92624 124.962L5.37662 128.09C-1.45577 141.823 -1.50273 158.142 5.25923 172.064L6.76188 175.144L5.4001 177.802C-1.66708 191.746 -1.761 208.16 5.16531 222.34C12.6082 237.602 26.9303 247.831 43.9996 250.089C45.5022 250.277 47.4275 250.441 48.2493 250.441H49.7754L50.6441 251.876C57.4296 262.952 68.5586 271.041 81.4486 274.31C84.0548 274.945 87.6471 275.509 90.8637 275.721L93.1177 275.885L94.8316 278.472C102.721 290.371 114.836 298.107 129.252 300.459C132.75 301.023 140.17 301.023 143.832 300.459C148.622 299.707 153.811 298.131 158.131 296.085C166.161 292.276 173.604 285.738 178.511 278.166L179.826 276.167L183.301 275.885C199.243 274.686 212.931 266.691 221.783 253.475L223.285 251.217L225.962 251.053C236.692 250.418 246.882 246.514 254.982 239.93C257.095 238.213 260.852 234.427 262.519 232.334C274.61 217.237 276.888 196.355 268.365 178.86L267.003 176.061L268.6 172.816C275.456 158.777 275.409 142.34 268.482 128.536L267.214 125.997L268.576 123.245C271.018 118.378 272.591 113.486 273.483 107.937C274.094 104.127 274.023 96.508 273.319 92.5809C272.403 87.2899 271.159 83.4804 268.788 78.4716L267.567 75.9554H265.524C255.639 75.9554 244.44 80.0941 235.753 86.9842C233.123 89.0536 228.615 93.7802 226.807 96.3905C224.647 99.4945 224.577 99.5416 225.539 97.5898C232.09 84.2094 232.348 68.6655 226.267 54.8384C225.68 53.5215 225.234 52.4398 225.281 52.4398C225.328 52.4398 225.704 53.0041 226.126 53.6626C228.333 57.1429 232.771 61.893 236.527 64.8795C244.651 71.2993 254.113 74.8972 264.796 75.6262C266.299 75.7202 267.191 75.6967 267.191 75.5556C267.191 75.0383 263.81 70.2411 261.697 67.7955C256.132 61.3052 248.032 55.8966 239.838 53.1688C235.283 51.6402 229.319 50.5585 225.516 50.5585H224.107L223.05 48.8654C218.777 41.9283 212.415 35.8142 205.089 31.699C198.961 28.2422 191.096 25.8436 184.733 25.5144C180.718 25.2792 181.047 25.4438 179.403 22.9512C176.656 18.6948 173.416 15.0029 169.777 11.9694C162.569 5.90235 154.046 2.02227 144.865 0.564302C142.118 0.117505 134.863 -0.0471041 132.21 0.258599ZM142.893 7.54844C151.064 17.378 163.414 23.7507 176.797 25.0676L178.558 25.2557L175.74 25.5379C161.864 26.9959 148.857 34.2152 140.897 44.9383C138.479 48.207 138.456 48.2305 139.324 46.4433C143.926 36.8959 145.311 25.2087 143.081 14.5561C142.377 11.1228 141.132 7.36032 139.794 4.49141C139.23 3.29211 138.761 2.23391 138.761 2.18688C138.761 2.11633 139.348 2.89235 140.076 3.90352C140.804 4.93821 142.071 6.56079 142.893 7.54844ZM135.685 3.55079C134.84 5.24391 133.196 9.68836 132.562 11.9929C129.557 23.1863 130.449 34.8971 135.145 45.7378C135.709 47.0312 135.99 47.8307 135.756 47.5015C131.717 41.6226 127.068 36.9665 121.621 33.3451C118.945 31.5579 113.638 28.8771 110.821 27.8659C106.97 26.502 100.748 25.1616 98.2126 25.1616C97.6491 25.1616 97.203 25.0441 97.203 24.9265C97.203 24.7854 97.6726 24.6913 98.2596 24.6913C100.842 24.6913 106.501 23.5391 110.469 22.1987C119.461 19.1652 127.538 13.4979 133.549 5.92586C134.605 4.60899 135.568 3.31563 135.709 3.05696C136.202 2.13985 136.178 2.61016 135.685 3.55079ZM96.616 28.8066C99.3866 32.8277 103.542 37.1076 107.557 40.1176C114.765 45.4791 122.161 48.4656 131.717 49.853C133.549 50.1117 134.253 50.2763 133.619 50.2998C131.835 50.3469 127.702 51.0288 124.861 51.7343C112.934 54.7443 102.838 61.8695 95.5125 72.428C95.2777 72.7573 95.583 72.0048 96.1465 70.7584C99.0344 64.4327 100.725 56.6961 100.725 49.7355C100.725 42.7748 99.0109 35.0382 96.123 28.9241C94.949 26.455 94.9725 26.4315 96.616 28.8066ZM91.8968 29.2534C87.0131 39.5767 86.0035 52.4633 89.1967 63.7743C89.948 66.3845 91.3802 70.2176 92.4133 72.2634C93.1646 73.7684 93.0707 73.6744 91.662 71.605C84.8765 61.6109 74.4988 54.3916 62.5715 51.3816C60.881 50.9348 58.3922 50.4645 57.0539 50.3234C53.1564 49.9001 52.8277 49.7355 55.4573 49.5473C58.5331 49.3357 62.9471 48.4186 66.5629 47.2428C69.9908 46.1141 75.5084 43.4333 78.4198 41.505C83.2095 38.2834 87.7879 33.933 91.0985 29.4415C92.0611 28.1246 92.8829 27.0429 92.9064 27.0429C92.9298 27.0429 92.4837 28.0541 91.8968 29.2534ZM184.287 30.3821C192.669 41.6931 206.005 49.1241 219.998 50.2763L222.229 50.4645L219.411 50.7466C207.648 51.993 197.458 56.6491 189.264 64.5503C186.775 66.9489 183.887 70.3822 182.455 72.5927C182.033 73.2746 181.634 73.839 181.61 73.839C181.563 73.839 182.033 72.7573 182.667 71.4169C184.85 66.8313 186.282 61.9166 187.034 56.555C187.55 52.6749 187.386 45.197 186.681 41.4815C185.977 37.672 184.756 33.6743 183.277 30.194C182.573 28.5244 182.127 27.3721 182.267 27.6073C182.432 27.8659 183.324 29.1123 184.287 30.3821ZM178.558 29.7237C175.177 36.9665 173.533 46.0435 174.167 53.9448C174.66 59.9413 175.905 65.0206 178.182 70.4292C178.816 71.9342 179.309 73.157 179.262 73.11C179.215 73.063 178.581 72.1459 177.806 71.0877C171.631 62.4574 162.616 55.873 152.449 52.5809C149.42 51.6167 144.889 50.6526 142.048 50.4174L140.052 50.2293L143.104 49.853C147.331 49.3122 149.655 48.7948 153.2 47.6191C160.878 45.1029 167.311 41.0817 173.158 35.1793C174.848 33.4627 176.938 31.0641 177.853 29.7942C178.746 28.5479 179.52 27.5132 179.544 27.5132C179.567 27.5132 179.121 28.5009 178.558 29.7237ZM53.1799 53.7331C61.0923 65.1617 73.8649 72.8513 87.9288 74.662C89.5958 74.8737 91.028 75.0853 91.075 75.1559C91.1219 75.2029 90.6758 75.2499 90.0419 75.2499C88.4219 75.2499 84.2896 75.8848 81.6834 76.5433C74.4988 78.3775 67.6664 81.7637 62.0315 86.3493C59.4018 88.4892 55.8565 92.1812 53.9312 94.7679C53.039 95.9907 52.1938 97.0959 52.0998 97.2135C51.9824 97.3311 52.3581 96.3905 52.9216 95.0971C58.7209 81.8578 58.627 66.6432 52.6633 53.8507C51.5129 51.3816 51.5363 51.3816 53.1799 53.7331ZM139.817 53.9683C146.603 63.7508 157.121 70.9936 168.931 73.933C171.279 74.5209 175.576 75.2264 177.055 75.2734C177.501 75.297 176.445 75.4851 174.731 75.7437C169.26 76.4962 165.128 77.578 160.925 79.3887C152.191 83.1277 144.161 89.665 139.348 96.9313C138.855 97.6838 138.432 98.2952 138.409 98.2952C138.362 98.2952 138.855 97.1665 139.465 95.7555C141.719 90.6997 143.151 85.4087 143.715 79.9766C144.044 76.7079 143.879 70.4057 143.339 67.2546C142.564 62.5985 140.874 57.1429 139.066 53.498C138.127 51.6167 138.244 51.6873 139.817 53.9683ZM48.2023 54.6032C45.2205 61.4227 43.9291 67.6073 43.9057 75.1323C43.9057 81.4816 44.8683 86.8666 47.1223 92.8631C47.5684 94.1095 48.2493 95.732 48.6249 96.461C49.0006 97.2135 49.2589 97.8249 49.2119 97.8249C49.165 97.8249 48.4136 96.8373 47.5684 95.638C40.3603 85.5027 29.2782 78.3305 16.9518 75.8143C15.3082 75.4851 13.0308 75.1559 11.9038 75.0853C9.60284 74.9207 8.87499 74.5445 10.8942 74.5445C12.7725 74.5445 16.8579 73.886 19.8866 73.11C28.6913 70.8525 37.1672 65.8907 43.4596 59.3534C45.3379 57.378 47.6858 54.4856 48.578 53.0747C48.8597 52.6044 49.1415 52.2046 49.1884 52.2046C49.2354 52.2046 48.7893 53.2863 48.2023 54.6032ZM135.38 54.0153C132.656 59.4474 130.919 66.6667 130.614 73.6038C130.308 81.0583 131.741 88.5598 134.887 95.8026C135.45 97.1195 135.756 97.919 135.521 97.6133C126.646 84.8208 113.944 77.0606 99.2457 75.4145L96.616 75.1088L99.9031 74.7091C113.967 72.9689 126.88 65.3969 134.699 54.2505C135.403 53.2628 136.037 52.4398 136.084 52.4398C136.131 52.4398 135.826 53.1452 135.38 54.0153ZM222.111 54.4386C219.857 59.3298 218.449 64.2446 217.768 69.4416C217.369 72.6397 217.298 78.4716 217.65 81.364C218.284 86.5374 219.928 92.3928 221.97 96.8373C222.557 98.0836 222.863 98.8596 222.628 98.5304C219.083 93.4275 216.735 90.7232 213.307 87.7837C205.606 81.1288 196.496 77.0606 186.447 75.7673C184.686 75.5556 183.582 75.344 183.958 75.3205C194.43 74.4269 202.952 71.2523 211.076 65.1617C215.185 62.0812 219.623 57.4251 222.229 53.4274C222.581 52.8866 222.91 52.4398 222.957 52.4398C223.004 52.4398 222.604 53.3334 222.111 54.4386ZM9.18022 77.8837C11.5751 81.6462 16.5761 86.9137 20.5441 89.8766C27.7756 95.2852 36.3454 98.648 45.5492 99.7062C48.1084 100.012 48.531 100.176 46.6997 100.176C45.1735 100.176 40.2664 100.952 37.7307 101.611C26.8364 104.386 16.6465 111.276 10.0489 120.329C9.27414 121.411 8.59324 122.281 8.54629 122.281C8.52281 122.281 8.82804 121.505 9.25066 120.565C12.9134 112.522 14.4395 103.586 13.5943 95.0971C13.0543 89.5474 11.4812 83.5745 9.32109 78.9419C8.73412 77.6955 8.28802 76.6609 8.33498 76.6609C8.35845 76.6609 8.7576 77.2252 9.18022 77.8837ZM95.8177 78.1188C99.0813 83.2217 105.303 89.2182 111.079 92.8161C117.301 96.6962 125.542 99.471 132.68 100.106L134.652 100.271L131.835 100.576C117.606 102.199 105.068 109.324 96.7804 120.517C95.8177 121.811 94.996 122.916 94.949 122.963C94.8786 123.034 95.3247 122.07 95.8882 120.823C101.899 107.937 101.946 92.7926 96.0291 79.4122C95.4186 78.0248 94.949 76.896 94.9725 76.896C95.0195 76.896 95.3951 77.4604 95.8177 78.1188ZM178.558 79.5298C176.492 83.9272 174.848 89.6885 174.191 94.7679C173.792 97.9895 173.862 104.01 174.308 107.349C175.036 112.475 176.75 118.236 178.769 122.234C179.239 123.151 179.614 123.998 179.614 124.092C179.614 124.186 178.98 123.316 178.182 122.14C176.233 119.271 175.435 118.331 172.711 115.509C164.611 107.161 154.163 102.058 142.283 100.623L139.817 100.318L142.447 100.035C157.051 98.4834 170.082 90.7937 178.44 78.8243C179.004 78.0248 179.497 77.3663 179.52 77.3663C179.567 77.3663 179.121 78.354 178.558 79.5298ZM185.461 82.3752C187.151 84.4445 191.166 88.3716 193.232 89.9942C198.421 94.0389 205.136 97.3781 211.405 99.0007C214.41 99.7767 218.096 100.412 219.576 100.412C221.618 100.412 221.172 100.811 218.965 100.952C215.936 101.164 211.522 102.081 207.907 103.257C204.408 104.409 198.938 107.067 195.932 109.089C191.283 112.193 186.728 116.543 183.535 120.917C182.62 122.164 181.845 123.175 181.798 123.151C181.774 123.104 182.08 122.399 182.479 121.576C184.216 117.907 185.719 113.087 186.541 108.525C187.057 105.75 187.268 98.2012 186.916 95.0501C186.353 89.9237 184.78 84.0683 182.761 79.7414C182.197 78.5186 181.727 77.4839 181.727 77.4134C181.727 77.3428 182.244 78.0483 182.901 78.9889C183.535 79.9295 184.686 81.458 185.461 82.3752ZM265.266 79.8825C263.106 84.468 261.509 90.1588 260.852 95.4734C260.523 98.2952 260.57 104.55 260.946 107.466C261.603 112.334 263.082 117.602 264.961 121.74C265.43 122.728 265.759 123.504 265.688 123.457C265.641 123.386 264.773 122.234 263.787 120.87C261.65 117.978 256.86 113.087 254.09 111.017C248.901 107.09 242.609 104.01 236.598 102.41C233.945 101.705 229.296 100.882 227.676 100.858L226.455 100.835L227.394 100.647C227.911 100.529 229.601 100.294 231.151 100.082C239.274 99.0242 247.328 95.685 254.16 90.5821C258.152 87.5956 262.636 82.8925 265.266 78.9419C265.853 78.0718 266.346 77.3663 266.393 77.3663C266.416 77.3663 265.923 78.4951 265.266 79.8825ZM91.6385 79.3887C85.6279 92.4163 85.6044 108.031 91.5915 121.105C92.0846 122.211 92.3194 122.846 92.0846 122.516C83.186 109.7 70.2491 101.823 55.5513 100.318L52.7103 100.035L55.5278 99.7532C69.7326 98.2717 82.8573 90.7702 91.075 79.4122C91.7794 78.4245 92.4133 77.6015 92.4368 77.6015C92.4603 77.6015 92.1081 78.401 91.6385 79.3887ZM48.1554 104.433C42.2152 117.178 42.1682 133.028 48.038 145.773C48.4841 146.737 48.7893 147.56 48.7423 147.607C48.6954 147.678 48.5076 147.466 48.3432 147.161C47.0753 144.786 41.4873 138.672 38.0359 135.92C32.4479 131.452 25.8034 128.16 19.0179 126.49C15.8952 125.738 11.8803 125.103 10.0959 125.103C8.17062 125.103 8.78108 124.938 11.8333 124.656C21.6241 123.716 31.1566 119.812 38.7403 113.651C42.0273 110.97 46.5118 106.126 48.3197 103.304C48.6484 102.763 48.9771 102.34 49.0006 102.387C49.0476 102.434 48.6719 103.351 48.1554 104.433ZM53.8373 105.162C60.5992 114.192 70.3195 120.706 81.2842 123.575C84.4304 124.374 88.5158 125.08 90.4176 125.127C90.9811 125.15 90.2297 125.291 88.7506 125.479C74.1466 127.196 61.9845 133.992 53.626 145.162C52.6399 146.479 51.7946 147.607 51.7242 147.655C51.6772 147.725 52.0998 146.714 52.6633 145.421C58.4861 132.228 58.4627 117.225 52.5929 104.198C52.0764 103.092 51.8416 102.434 52.0764 102.763C52.2877 103.092 53.086 104.174 53.8373 105.162ZM141.954 107.302C147.143 113.721 155.407 119.6 163.414 122.516C167.217 123.927 173.58 125.338 176.046 125.338C177.806 125.338 177.102 125.738 175.083 125.879C170.927 126.161 164.987 127.713 160.291 129.712C151.792 133.357 144.138 139.73 138.479 147.913C138.244 148.242 138.55 147.49 139.113 146.267C141.203 141.752 142.87 135.756 143.457 130.629C144.419 122.164 142.776 112.099 139.207 104.433C138.714 103.351 138.291 102.41 138.291 102.34C138.291 102.269 138.831 102.998 139.489 103.962C140.146 104.927 141.273 106.408 141.954 107.302ZM222.135 104.104C220.186 108.054 218.66 112.781 217.744 117.696C217.251 120.494 217.04 128.536 217.392 131.593C217.979 136.626 219.576 142.434 221.501 146.596C221.947 147.584 222.276 148.384 222.229 148.384C222.205 148.384 221.454 147.372 220.562 146.126C218.66 143.445 214.551 139.071 211.921 136.955C205.042 131.382 197.036 127.76 188.442 126.279C186.916 126.02 185.179 125.809 184.592 125.809C183.794 125.809 183.582 125.738 183.841 125.573C184.028 125.456 184.639 125.338 185.179 125.338C185.695 125.338 187.386 125.127 188.935 124.868C198.984 123.151 208.118 118.542 215.373 111.487C217.791 109.159 220.703 105.679 222.088 103.516C222.51 102.857 222.91 102.293 222.957 102.293C223.004 102.293 222.651 103.116 222.135 104.104ZM134.769 105.044C128.97 118.142 128.923 132.769 134.676 145.891C135.239 147.161 135.662 148.172 135.615 148.125C135.568 148.078 134.699 146.926 133.689 145.562C125.401 134.368 112.957 127.243 98.7291 125.526C97.0856 125.338 96.4986 125.197 97.0856 125.15C100.349 124.938 106.149 123.81 109.295 122.799C119.109 119.6 128.101 113.11 134.065 104.95C135.028 103.61 135.849 102.528 135.849 102.528C135.873 102.528 135.38 103.657 134.769 105.044ZM227.253 105.679C233.968 114.803 244.322 121.717 255.287 124.398C258.128 125.103 262.378 125.785 264.209 125.832C264.749 125.856 263.88 126.02 262.26 126.185C255.921 126.867 250.427 128.419 245.003 131.076C237.326 134.839 230.752 140.459 225.915 147.419C225.234 148.384 224.694 149.112 224.694 149.065C224.694 148.995 225.093 148.101 225.61 147.09C231.902 134.133 232.09 118.683 226.079 104.997C225.469 103.563 225.07 102.622 225.234 102.857C225.398 103.092 226.291 104.362 227.253 105.679ZM183.301 129.971C189.264 138.413 198.28 145.021 208.494 148.384C211.1 149.23 215.279 150.147 218.237 150.523L220.585 150.829L217.956 151.135C203.633 152.757 190.133 160.8 182.479 172.181C181.892 173.075 181.399 173.78 181.352 173.78C181.328 173.78 181.704 172.91 182.197 171.829C184.122 167.69 185.437 163.434 186.329 158.613C186.822 155.838 187.034 148.219 186.681 145.185C186.071 139.8 184.451 133.921 182.314 129.383C181.751 128.137 181.399 127.266 181.563 127.502C181.704 127.713 182.502 128.819 183.301 129.971ZM13.1247 133.428C19.4875 140.623 28.433 146.079 37.9185 148.501C40.8064 149.254 45.2205 149.983 47.1458 150.053C47.6154 150.077 47.1223 150.194 46.0188 150.288C35.4063 151.394 26.4138 155.038 18.384 161.529C15.0735 164.186 11.1994 168.395 8.6402 172.134C8.42889 172.464 8.71064 171.664 9.27414 170.347C12.4438 163.034 13.8056 155.861 13.5473 148.148C13.289 141.329 11.8568 135.05 9.25066 129.359C8.80456 128.395 8.45237 127.572 8.45237 127.502C8.45237 127.455 9.06283 128.254 9.81415 129.289C10.542 130.324 12.0447 132.181 13.1247 133.428ZM178.605 129.03C174.942 136.367 173.087 146.032 173.721 154.286C174.191 160.259 175.881 166.867 178.182 171.805C178.699 172.887 179.074 173.78 179.027 173.78C179.004 173.78 178.605 173.216 178.182 172.534C174.026 166.044 166.349 159.342 158.835 155.697C153.294 152.993 145.218 150.735 141.062 150.735C139.137 150.735 139.817 150.335 142.001 150.194C150.336 149.653 160.761 145.515 167.969 139.824C171.796 136.837 175.717 132.675 178.159 129.03C178.746 128.16 179.262 127.455 179.309 127.455C179.356 127.455 179.027 128.16 178.605 129.03ZM91.5211 129.265C89.5958 133.545 88.0697 138.601 87.2949 143.328C87.107 144.527 86.9896 147.208 87.0131 150.735C87.0131 155.72 87.0836 156.567 87.6471 159.506C88.3514 163.104 89.8776 168.019 91.1924 170.817C91.662 171.852 92.0376 172.722 92.0376 172.769C92.0376 172.84 91.4507 172.064 90.7228 171.053C82.5521 159.6 69.6621 152.122 55.1756 150.406C53.6964 150.218 52.9216 150.077 53.4616 150.053C55.2225 150.006 59.6836 149.324 62.1019 148.713C71.4935 146.361 79.1477 142.058 85.8157 135.332C87.3653 133.78 89.4315 131.429 90.3941 130.088C91.3567 128.771 92.1785 127.69 92.202 127.69C92.2255 127.69 91.9202 128.395 91.5211 129.265ZM99.5979 133.498C106.689 141.611 116.902 147.466 127.679 149.559C129.064 149.841 131.06 150.124 132.116 150.194C133.173 150.265 133.995 150.406 133.948 150.5C133.901 150.594 132.915 150.735 131.788 150.806C124.673 151.276 115.611 154.474 109.224 158.754C104.012 162.281 99.1987 166.937 95.8177 171.758C95.3012 172.534 94.8551 173.098 94.8551 173.028C94.8551 172.957 95.3247 171.923 95.8882 170.7C97.8369 166.491 99.2457 161.505 99.9031 156.543C100.302 153.369 100.373 147.537 100.02 144.621C99.41 139.659 97.79 133.71 95.9351 129.712C95.4656 128.677 95.0899 127.807 95.0899 127.737C95.0899 127.666 95.7004 128.466 96.4517 129.5C97.1795 130.535 98.6117 132.346 99.5979 133.498ZM264.937 130.371C262.167 136.249 260.382 144.362 260.382 151.205C260.382 158.072 262.167 166.138 264.961 172.087C266.158 174.603 266.134 174.627 264.491 172.252C256.32 160.447 242.702 152.452 228.451 151.064L226.69 150.876L229.742 150.5C235.753 149.7 240.801 148.195 245.989 145.679C253.409 142.058 260.453 136.038 264.82 129.618C265.36 128.819 265.853 128.16 265.9 128.16C265.947 128.16 265.524 129.148 264.937 130.371ZM48.2728 153.957C46.5118 157.508 44.7979 163.01 44.0231 167.666C43.4126 171.241 43.3187 177.308 43.7648 181.141C44.3987 186.314 45.8544 191.629 47.8032 195.862C48.2493 196.826 48.6015 197.649 48.6015 197.719C48.6015 197.79 48.1554 197.225 47.6388 196.449C43.3657 190.335 37.4255 185.021 30.8279 181.329C25.1694 178.201 19.3466 176.344 12.4438 175.45L9.27414 175.05L11.4812 174.862C19.2292 174.274 27.6817 171.311 34.5375 166.773C39.7264 163.363 44.6805 158.519 47.8971 153.792C48.4136 153.016 48.9067 152.381 48.9537 152.381C49.0241 152.381 48.7189 153.087 48.2728 153.957ZM141.79 157.414C149.819 167.314 162.099 173.945 175.012 175.403C176.163 175.544 177.126 175.685 177.196 175.732C177.243 175.779 176.304 175.897 175.13 175.967C169.988 176.344 163.602 178.154 158.131 180.812C150.829 184.362 144.701 189.418 139.982 195.767C139.019 197.061 138.174 198.166 138.127 198.237C138.056 198.307 138.291 197.79 138.643 197.084C140.686 193.016 142.377 187.325 143.104 182.105C143.527 179.095 143.598 172.652 143.222 169.642C142.611 164.609 140.968 158.801 138.996 154.568C138.479 153.463 138.056 152.499 138.056 152.428C138.056 152.358 138.596 153.087 139.254 154.051C139.911 155.015 141.062 156.52 141.79 157.414ZM56.1148 158.378C61.5149 164.609 69.2865 169.83 77.3163 172.581C81.5425 174.039 86.9192 175.168 89.9245 175.215C91.028 175.238 91.1219 175.262 90.5115 175.426C90.1358 175.544 88.6332 175.732 87.2244 175.873C79.359 176.649 70.977 179.965 63.5811 185.209C61.1158 186.973 55.0112 193.04 53.2034 195.579C52.4285 196.661 51.7711 197.484 51.7007 197.437C51.6537 197.39 51.912 196.779 52.2407 196.12C53.8373 192.969 55.4808 187.608 56.2556 183.093C56.7722 180.083 56.9365 173.287 56.6078 169.994C56.0678 164.915 54.753 159.836 52.7807 155.321C52.2642 154.145 51.7946 153.04 51.7242 152.851C51.6537 152.663 52.1938 153.369 52.9686 154.427C53.7199 155.485 55.1521 157.272 56.1148 158.378ZM221.477 155.132C219.411 159.553 217.815 165.291 217.181 170.488C216.852 173.31 216.899 179.565 217.275 182.481C217.932 187.325 219.223 191.981 221.078 196.214C221.642 197.484 222.064 198.495 222.017 198.448C221.97 198.401 221.102 197.249 220.092 195.909C215.232 189.395 208.94 184.221 201.638 180.717C196.261 178.154 190.062 176.391 184.897 175.967L182.784 175.803L185.954 175.403C197.458 173.969 207.625 169.101 215.514 161.27C217.721 159.107 220.797 155.415 221.853 153.722C222.135 153.251 222.417 152.851 222.464 152.851C222.51 152.851 222.064 153.886 221.477 155.132ZM134.394 155.462C132.116 160.706 130.731 166.279 130.261 172.181C129.628 180.036 131.248 189.136 134.535 196.355C135.521 198.472 135.521 198.495 133.032 195.086C130.144 191.158 124.321 185.891 119.696 182.999C117.395 181.564 113.38 179.589 110.703 178.601C106.571 177.049 100.279 175.662 97.3908 175.662C95.4656 175.662 96.1465 175.262 98.33 175.121C101.265 174.933 105.984 173.921 109.647 172.699C119.602 169.383 128.454 162.799 134.535 154.192C134.957 153.58 135.356 153.087 135.38 153.087C135.427 153.087 134.981 154.168 134.394 155.462ZM228.803 158.26C233.921 164.421 241.082 169.595 248.643 172.605C252.845 174.274 259.56 175.897 262.331 175.897C263.927 175.897 263.153 176.132 260.359 176.508C251.624 177.66 243.853 180.812 236.762 186.056C233.522 188.478 229.061 192.922 226.69 196.12C225.704 197.484 224.835 198.636 224.788 198.683C224.717 198.754 225.117 197.884 225.633 196.732C227.558 192.569 228.967 187.772 229.765 182.716C230.282 179.33 230.282 172.205 229.742 168.725C228.991 163.786 227.253 157.978 225.492 154.451C224.647 152.757 224.811 152.828 226.126 154.733C226.784 155.697 227.981 157.296 228.803 158.26ZM10.5655 180.694C16.177 188.195 25.1225 194.592 34.3967 197.719C38.2238 199.013 43.577 200.094 46.371 200.141C47.8736 200.165 47.1223 200.541 45.5022 200.565C44.9153 200.588 43.1778 200.8 41.6282 201.059C31.1331 202.846 21.765 207.713 14.51 215.097C11.5516 218.131 11.0351 218.719 9.29762 221.141C8.56977 222.152 7.98279 222.928 7.98279 222.857C7.98279 222.81 8.40541 221.846 8.92195 220.741C12.0447 214.086 13.5708 206.232 13.3125 198.378C13.0777 191.323 11.6925 185.397 8.82804 179.048C8.38193 178.013 8.17062 177.449 8.40541 177.778C8.61672 178.107 9.60284 179.424 10.5655 180.694ZM90.9811 180.294C88.234 186.549 86.6375 194.051 86.6375 200.588C86.6375 207.22 88.3749 215.332 91.075 221.211C92.0846 223.398 92.0846 223.398 89.5723 220.012C87.5766 217.284 82.7165 212.487 79.7346 210.277C72.4327 204.868 63.0411 201.223 55.0112 200.659C52.9216 200.518 52.3112 200.118 54.1895 200.118C54.7999 200.118 56.3495 199.953 57.6409 199.765C65.9994 198.495 74.264 194.968 81.0495 189.724C83.9843 187.443 87.9992 183.328 90.1593 180.412C91.1219 179.095 91.9437 178.013 91.9672 178.013C91.9672 178.013 91.5446 179.048 90.9811 180.294ZM177.806 180.412C174.778 187.278 173.463 193.628 173.463 201.176C173.486 208.348 174.965 215.309 177.853 221.658C178.323 222.669 178.652 223.445 178.605 223.398C178.534 223.328 177.689 222.199 176.679 220.859C168.204 209.548 155.619 202.422 141.578 200.964L138.878 200.682L140.757 200.494C150.782 199.577 159.516 196.214 167.523 190.171C170.176 188.172 174.942 183.281 177.032 180.435C177.994 179.095 178.816 178.013 178.84 178.013C178.84 178.013 178.393 179.095 177.806 180.412ZM184.991 182.716C192.81 192.405 205.019 199.083 217.862 200.659L220.303 200.964L217.744 201.247C211.851 201.905 206.615 203.457 201.238 206.114C193.162 210.136 187.057 215.474 181.68 223.163C181.446 223.492 181.704 222.787 182.22 221.635C184.287 217.073 185.789 211.735 186.447 206.702C186.869 203.504 186.799 196.802 186.306 193.651C185.555 188.713 183.817 182.904 182.056 179.377C181.211 177.684 181.375 177.778 182.807 179.8C183.535 180.835 184.521 182.128 184.991 182.716ZM97.3204 181.188C99.0109 183.445 103.261 187.772 105.538 189.559C113.169 195.579 121.574 199.083 131.13 200.282C132.938 200.518 134.042 200.729 133.595 200.753C121.786 201.599 111.22 206.114 102.509 214.086C100.373 216.014 97.0152 219.895 95.5125 222.176C95.0195 222.905 94.6203 223.445 94.6203 223.375C94.6203 223.304 95.0429 222.34 95.536 221.258C101.124 209.289 101.617 194.968 96.8743 182.552C96.4282 181.376 95.8412 179.989 95.583 179.448C94.996 178.319 94.949 177.896 95.5125 178.719C95.7238 179.048 96.5456 180.153 97.3204 181.188ZM264.726 180.435C258.786 192.969 258.621 208.325 264.28 221.4C264.82 222.693 265.101 223.492 264.89 223.163C263.317 220.859 261.321 218.437 259.208 216.25C254.841 211.758 250.944 208.913 245.238 206.114C240.073 203.575 235.494 202.187 229.437 201.317C227.676 201.059 226.878 200.87 227.465 200.847C228.638 200.823 232.771 200.212 234.297 199.859C243.712 197.602 251.531 193.463 258.105 187.208C260.406 185.021 263.082 181.917 264.608 179.659C265.125 178.883 265.618 178.248 265.665 178.248C265.712 178.248 265.289 179.236 264.726 180.435ZM55.6921 208.278C60.881 214.415 68.5586 219.683 76.5415 222.575C80.1807 223.892 83.6791 224.715 88.3984 225.327C90.2297 225.562 90.5115 225.656 89.6897 225.703C86.3792 225.891 81.1668 226.902 77.598 228.078C67.7134 231.276 58.0635 238.331 52.5459 246.42C50.832 248.96 50.8085 248.96 52.0294 246.326C54.119 241.811 55.7156 236.261 56.3495 231.159C56.7017 228.172 56.6313 221.47 56.2087 218.413C55.5513 213.686 53.7668 207.596 52.0294 204.163C51.7007 203.504 51.4189 202.893 51.4189 202.799C51.4189 202.728 52.0059 203.481 52.7338 204.492C53.4616 205.526 54.7999 207.22 55.6921 208.278ZM47.9206 204.468C44.3753 211.946 42.6378 221.635 43.4126 229.748C43.9526 235.509 45.5492 241.623 47.6388 246.114C48.1788 247.243 48.6015 248.207 48.6015 248.254C48.6015 248.325 48.0145 247.549 47.2866 246.538C42.1682 239.389 36.1576 234.286 28.3391 230.43C23.0094 227.819 16.2474 225.915 11.1994 225.585C8.71064 225.421 8.96891 225.162 11.7629 224.974C20.4736 224.386 30.8513 220.106 38.4585 213.969C41.0882 211.829 44.7274 208.043 46.7232 205.315C47.6858 204.021 48.5076 202.987 48.531 203.034C48.5545 203.057 48.2728 203.716 47.9206 204.468ZM134.511 204.915C133.196 207.76 131.6 212.699 130.919 216.109C128.9 226.079 130.05 236.614 134.206 246.067C134.769 247.337 135.192 248.348 135.145 248.301C135.098 248.254 134.229 247.102 133.243 245.738C130.989 242.681 126.247 237.907 123.265 235.697C115.845 230.194 107.487 226.879 98.4944 225.891L95.9117 225.609L97.5552 225.421C109.764 224.127 119.813 219.565 128.172 211.523C130.543 209.242 133.642 205.597 134.722 203.81C135.028 203.34 135.309 202.94 135.356 202.94C135.403 202.94 135.028 203.833 134.511 204.915ZM141.085 207.055C146.932 214.415 155.314 220.247 164.353 223.257C167.757 224.386 172.242 225.374 175.271 225.656L177.149 225.82L173.909 226.244C159.328 228.101 146.556 235.932 138.244 248.09C138.033 248.419 138.315 247.619 138.902 246.326C142.846 237.461 144.184 228.007 142.846 218.46C142.212 213.945 140.381 207.831 138.62 204.304C137.822 202.705 137.916 202.634 138.925 204.116C139.395 204.821 140.381 206.138 141.085 207.055ZM221.783 204.045C220.632 206.35 219.012 210.841 218.237 213.851C217.04 218.578 216.617 222.434 216.782 227.631C216.993 234.921 218.19 240.141 221.266 247.267C221.618 248.09 221.689 248.442 221.454 248.09C218.566 243.951 214.575 239.601 211.076 236.802C203.845 231.041 195.58 227.561 185.836 226.22C184.169 225.985 183.183 225.797 183.7 225.773C185.202 225.726 189.429 225.044 191.988 224.433C201.99 222.034 211.311 216.367 217.932 208.654C219.059 207.314 220.491 205.479 221.102 204.586C221.689 203.669 222.229 202.94 222.276 202.94C222.323 202.94 222.111 203.434 221.783 204.045ZM228.944 208.725C234.156 214.886 241.082 219.824 248.76 222.834C252.071 224.127 256.766 225.35 259.913 225.75C263.904 226.244 263.998 226.291 261.556 226.502C247.422 227.772 233.78 235.791 225.422 247.714C224.905 248.49 224.459 249.054 224.459 248.983C224.459 248.913 224.929 247.855 225.516 246.632C228.286 240.776 230.094 232.64 230.094 226.009C230.094 219.283 228.333 211.123 225.633 205.362C225.117 204.257 224.694 203.292 224.694 203.245C224.694 203.175 225.281 203.951 226.009 204.962C226.737 205.997 228.052 207.666 228.944 208.725ZM90.7228 230.806C85.0409 244.022 85.1348 258.39 90.9576 271.511C91.8498 273.534 91.9202 273.581 89.3375 270.1C82.9278 261.47 72.6205 254.745 61.6323 251.993C59.0496 251.335 54.9173 250.7 53.1564 250.653C52.4051 250.629 53.1329 250.465 55.1756 250.206C58.7444 249.759 60.3645 249.454 62.9237 248.748C71.3761 246.467 78.7016 242.305 84.8296 236.355C87.1305 234.121 90.2297 230.477 91.2863 228.736C91.5915 228.266 91.8733 227.866 91.8968 227.866C91.9437 227.866 91.4037 229.183 90.7228 230.806ZM97.0152 231.159C99.997 235.18 104.834 239.671 109.342 242.611C115.892 246.89 123.406 249.595 131.248 250.512L133.713 250.794L131.013 251.123C117.066 252.699 104.575 259.871 96.3108 271.017C95.3482 272.311 94.5264 273.416 94.4794 273.463C94.409 273.534 94.7847 272.687 95.3012 271.582C98.33 264.974 99.8561 258.013 99.8561 250.559C99.8561 243.034 98.2126 235.556 95.1838 229.16C94.5264 227.796 94.5029 227.772 97.0152 231.159ZM185.555 233.722C192.434 241.835 202.835 247.925 213.565 250.089C215.209 250.441 217.462 250.771 218.566 250.841C220.656 251.006 220.656 251.335 218.543 251.358C216.969 251.382 212.368 252.205 209.855 252.934C198.773 256.038 189.288 262.622 182.573 271.841C181.939 272.687 181.399 273.416 181.352 273.487C181.281 273.534 181.587 272.805 182.033 271.841C183.864 267.749 185.202 263.469 185.977 259.001C186.681 255.027 186.752 247.502 186.118 243.481C185.367 238.801 183.653 233.134 181.939 229.701C181.563 228.948 181.258 228.29 181.258 228.196C181.258 228.125 181.845 228.877 182.573 229.889C183.301 230.923 184.639 232.64 185.555 233.722ZM177.736 230.312C173.134 240.283 172.031 252.299 174.707 263.14C175.482 266.244 176.773 269.959 177.83 272.005C178.699 273.745 178.605 273.769 177.454 272.17C174.543 268.055 169.542 262.952 165.738 260.271C158.577 255.168 150.853 252.181 142.048 251.123L139.583 250.818L142.752 250.418C153.482 249.054 162.803 244.727 170.786 237.437C172.899 235.509 175.975 231.982 177.525 229.677C178.041 228.948 178.511 228.337 178.558 228.337C178.605 228.337 178.229 229.23 177.736 230.312ZM134.793 254.18C133.102 257.472 131.318 263.116 130.52 267.608C129.886 271.112 129.674 277.437 130.05 281.035C130.59 286.232 132.163 292.064 134.159 296.391C134.629 297.402 135.004 298.296 135.004 298.343C135.004 298.39 134.182 297.355 133.196 296.015C124.908 284.845 112.277 277.625 98.2596 276.05L95.6769 275.744L98.377 275.462C107.698 274.474 116.526 270.947 124.016 265.209C126.927 262.975 131.201 258.625 133.361 255.662C134.323 254.345 135.145 253.263 135.192 253.263C135.216 253.263 135.028 253.686 134.793 254.18ZM140.052 256.038C146.885 265.162 156.746 271.676 168.016 274.545C170.293 275.109 174.238 275.768 176.327 275.909C177.266 275.956 177.219 275.979 175.74 276.144C162.968 277.508 152.52 282.423 144.02 291.006C142.729 292.323 140.85 294.486 139.841 295.85C138.831 297.19 137.963 298.343 137.916 298.39C137.869 298.437 138.315 297.426 138.878 296.132C143.41 285.832 144.396 274.31 141.719 263.657C140.968 260.718 139.63 256.861 138.737 255.097C138.362 254.368 138.056 253.663 138.056 253.592C138.056 253.381 137.963 253.24 140.052 256.038Z" fill="black"/>
</svg>
